<svg width="1440" height="1024" viewBox="0 0 1440 1024" fill="none" xmlns="http://www.w3.org/2000/svg">
<g clip-path="url(#clip0)">
<rect width="1440" height="1024" fill="#9DADA3"/>
<g opacity="0.5">
<path d="M-102.691 1441.98L932.952 844.053" stroke="#535461" stroke-width="0.25" stroke-miterlimit="10"/>
<path d="M-114.051 1422.31L921.591 824.377" stroke="#535461" stroke-width="0.25" stroke-miterlimit="10"/>
<path d="M-125.408 1402.63L910.232 804.701" stroke="#535461" stroke-width="0.25" stroke-miterlimit="10"/>
<path d="M-136.766 1382.96L898.872 785.029" stroke="#535461" stroke-width="0.25" stroke-miterlimit="10"/>
<path d="M-148.129 1363.28L887.509 765.355" stroke="#535461" stroke-width="0.25" stroke-miterlimit="10"/>
<path d="M-159.486 1343.61L876.156 745.68" stroke="#535461" stroke-width="0.25" stroke-miterlimit="10"/>
<path d="M-170.848 1323.93L864.794 726.005" stroke="#535461" stroke-width="0.25" stroke-miterlimit="10"/>
<path d="M-182.205 1304.26L853.437 706.33" stroke="#535461" stroke-width="0.25" stroke-miterlimit="10"/>
<path d="M-193.562 1284.59L842.074 686.656" stroke="#535461" stroke-width="0.25" stroke-miterlimit="10"/>
<path d="M-204.924 1264.91L830.716 666.981" stroke="#535461" stroke-width="0.25" stroke-miterlimit="10"/>
<path d="M-216.283 1245.24L819.357 647.307" stroke="#535461" stroke-width="0.25" stroke-miterlimit="10"/>
<path d="M-227.641 1225.56L808.001 627.635" stroke="#535461" stroke-width="0.25" stroke-miterlimit="10"/>
<path d="M-239 1205.89L796.64 607.958" stroke="#535461" stroke-width="0.25" stroke-miterlimit="10"/>
<path d="M-250.359 1186.22L785.281 588.285" stroke="#535461" stroke-width="0.25" stroke-miterlimit="10"/>
<path d="M-261.719 1166.54L773.925 568.608" stroke="#535461" stroke-width="0.25" stroke-miterlimit="10"/>
<path d="M-273.08 1146.87L762.564 548.937" stroke="#535461" stroke-width="0.25" stroke-miterlimit="10"/>
<path d="M-284.436 1127.19L751.204 529.262" stroke="#535461" stroke-width="0.25" stroke-miterlimit="10"/>
<path d="M-295.797 1107.52L739.843 509.587" stroke="#535461" stroke-width="0.25" stroke-miterlimit="10"/>
<path d="M-307.156 1087.84L728.485 489.912" stroke="#535461" stroke-width="0.25" stroke-miterlimit="10"/>
<path d="M-318.512 1068.17L717.126 470.24" stroke="#535461" stroke-width="0.25" stroke-miterlimit="10"/>
<path d="M-329.873 1048.49L705.767 450.562" stroke="#535461" stroke-width="0.25" stroke-miterlimit="10"/>
<path d="M-341.232 1028.82L694.409 430.891" stroke="#535461" stroke-width="0.25" stroke-miterlimit="10"/>
<path d="M-352.594 1009.14L683.05 411.216" stroke="#535461" stroke-width="0.25" stroke-miterlimit="10"/>
<path d="M-363.949 989.469L671.691 391.539" stroke="#535461" stroke-width="0.25" stroke-miterlimit="10"/>
<path d="M-375.309 969.799L660.329 371.869" stroke="#535461" stroke-width="0.25" stroke-miterlimit="10"/>
<path d="M-386.666 950.123L648.976 352.19" stroke="#535461" stroke-width="0.25" stroke-miterlimit="10"/>
<path d="M-398.025 930.445L637.615 332.517" stroke="#535461" stroke-width="0.25" stroke-miterlimit="10"/>
<path d="M-409.385 910.776L626.257 312.844" stroke="#535461" stroke-width="0.25" stroke-miterlimit="10"/>
<path d="M-420.746 891.099L614.892 293.167" stroke="#535461" stroke-width="0.25" stroke-miterlimit="10"/>
<path d="M-432.105 871.422L603.536 273.495" stroke="#535461" stroke-width="0.25" stroke-miterlimit="10"/>
<path d="M-443.463 851.752L592.177 253.821" stroke="#535461" stroke-width="0.25" stroke-miterlimit="10"/>
<path d="M-454.822 832.078L580.816 234.144" stroke="#535461" stroke-width="0.25" stroke-miterlimit="10"/>
<path d="M-466.178 812.401L569.464 214.473" stroke="#535461" stroke-width="0.25" stroke-miterlimit="10"/>
<path d="M-477.543 792.723L558.099 194.798" stroke="#535461" stroke-width="0.25" stroke-miterlimit="10"/>
<path d="M-488.898 773.05L546.74 175.121" stroke="#535461" stroke-width="0.25" stroke-miterlimit="10"/>
<path d="M-500.258 753.374L535.384 155.449" stroke="#535461" stroke-width="0.25" stroke-miterlimit="10"/>
<path d="M-511.619 733.703L524.023 135.774" stroke="#535461" stroke-width="0.25" stroke-miterlimit="10"/>
<path d="M-522.975 714.029L512.667 116.099" stroke="#535461" stroke-width="0.25" stroke-miterlimit="10"/>
<path d="M-534.336 694.351L501.308 96.4248" stroke="#535461" stroke-width="0.25" stroke-miterlimit="10"/>
<path d="M-545.695 674.679L489.947 76.751" stroke="#535461" stroke-width="0.25" stroke-miterlimit="10"/>
<path d="M-557.051 655.006L478.589 57.0771" stroke="#535461" stroke-width="0.25" stroke-miterlimit="10"/>
<path d="M-568.412 635.328L467.228 37.4014" stroke="#535461" stroke-width="0.25" stroke-miterlimit="10"/>
<path d="M-579.768 615.655L455.874 17.7266" stroke="#535461" stroke-width="0.25" stroke-miterlimit="10"/>
<path d="M-591.129 595.983L444.511 -1.94727" stroke="#535461" stroke-width="0.25" stroke-miterlimit="10"/>
<path d="M-602.488 576.306L433.154 -21.6221" stroke="#535461" stroke-width="0.25" stroke-miterlimit="10"/>
<path d="M-613.848 556.633L421.79 -41.2969" stroke="#535461" stroke-width="0.25" stroke-miterlimit="10"/>
<path d="M-625.209 536.959L410.433 -60.9697" stroke="#535461" stroke-width="0.25" stroke-miterlimit="10"/>
<path d="M-636.564 517.283L399.077 -80.6455" stroke="#535461" stroke-width="0.25" stroke-miterlimit="10"/>
<path d="M-647.924 497.609L387.716 -100.319" stroke="#535461" stroke-width="0.25" stroke-miterlimit="10"/>
<path d="M-659.285 477.933L376.357 -119.993" stroke="#535461" stroke-width="0.25" stroke-miterlimit="10"/>
<path d="M-670.645 458.259L364.997 -139.67" stroke="#535461" stroke-width="0.25" stroke-miterlimit="10"/>
<path d="M-682.002 438.588L353.638 -159.343" stroke="#535461" stroke-width="0.25" stroke-miterlimit="10"/>
<path d="M-693.361 418.912L342.282 -179.017" stroke="#535461" stroke-width="0.25" stroke-miterlimit="10"/>
<path d="M5.51173 1617.31L1041.15 1019.38" stroke="#535461" stroke-width="0.25" stroke-miterlimit="10"/>
<path d="M-5.84766 1597.63L1029.79 999.703" stroke="#535461" stroke-width="0.25" stroke-miterlimit="10"/>
<path d="M-17.209 1577.96L1018.43 980.03" stroke="#535461" stroke-width="0.25" stroke-miterlimit="10"/>
<path d="M-28.5645 1558.28L1007.08 960.354" stroke="#535461" stroke-width="0.25" stroke-miterlimit="10"/>
<path d="M-39.9238 1538.61L995.716 940.681" stroke="#535461" stroke-width="0.25" stroke-miterlimit="10"/>
<path d="M-51.2852 1518.93L984.357 921.007" stroke="#535461" stroke-width="0.25" stroke-miterlimit="10"/>
<path d="M-62.6445 1499.26L972.997 901.33" stroke="#535461" stroke-width="0.25" stroke-miterlimit="10"/>
<path d="M-74.0019 1479.59L961.638 881.657" stroke="#535461" stroke-width="0.25" stroke-miterlimit="10"/>
<path d="M-85.3613 1459.91L950.282 861.983" stroke="#535461" stroke-width="0.25" stroke-miterlimit="10"/>
<path d="M926.309 847.983L1961.95 250.053" stroke="#535461" stroke-width="0.25" stroke-miterlimit="10"/>
<path d="M914.949 828.305L1950.59 230.377" stroke="#535461" stroke-width="0.25" stroke-miterlimit="10"/>
<path d="M903.592 808.633L1939.23 210.701" stroke="#535461" stroke-width="0.25" stroke-miterlimit="10"/>
<path d="M892.234 788.96L1927.87 191.029" stroke="#535461" stroke-width="0.25" stroke-miterlimit="10"/>
<path d="M880.871 769.282L1916.51 171.355" stroke="#535461" stroke-width="0.25" stroke-miterlimit="10"/>
<path d="M869.514 749.61L1905.16 151.68" stroke="#535461" stroke-width="0.25" stroke-miterlimit="10"/>
<path d="M858.152 729.933L1893.79 132.005" stroke="#535461" stroke-width="0.25" stroke-miterlimit="10"/>
<path d="M846.795 710.259L1882.44 112.33" stroke="#535461" stroke-width="0.25" stroke-miterlimit="10"/>
<path d="M835.438 690.587L1871.07 92.6563" stroke="#535461" stroke-width="0.25" stroke-miterlimit="10"/>
<path d="M824.076 670.91L1859.72 72.9815" stroke="#535461" stroke-width="0.25" stroke-miterlimit="10"/>
<path d="M812.717 651.239L1848.36 53.3066" stroke="#535461" stroke-width="0.25" stroke-miterlimit="10"/>
<path d="M801.359 631.563L1837 33.6348" stroke="#535461" stroke-width="0.25" stroke-miterlimit="10"/>
<path d="M790 611.888L1825.64 13.958" stroke="#535461" stroke-width="0.25" stroke-miterlimit="10"/>
<path d="M778.641 592.217L1814.28 -5.71485" stroke="#535461" stroke-width="0.25" stroke-miterlimit="10"/>
<path d="M767.281 572.541L1802.92 -25.3916" stroke="#535461" stroke-width="0.25" stroke-miterlimit="10"/>
<path d="M755.92 552.865L1791.56 -45.0635" stroke="#535461" stroke-width="0.25" stroke-miterlimit="10"/>
<path d="M744.564 533.192L1780.2 -64.7383" stroke="#535461" stroke-width="0.25" stroke-miterlimit="10"/>
<path d="M733.203 513.515L1768.84 -84.4131" stroke="#535461" stroke-width="0.25" stroke-miterlimit="10"/>
<path d="M721.844 493.842L1757.49 -104.088" stroke="#535461" stroke-width="0.25" stroke-miterlimit="10"/>
<path d="M710.488 474.169L1746.13 -123.76" stroke="#535461" stroke-width="0.25" stroke-miterlimit="10"/>
<path d="M699.127 454.492L1734.77 -143.438" stroke="#535461" stroke-width="0.25" stroke-miterlimit="10"/>
<path d="M687.768 434.817L1723.41 -163.109" stroke="#535461" stroke-width="0.25" stroke-miterlimit="10"/>
<path d="M676.406 415.144L1712.05 -182.784" stroke="#535461" stroke-width="0.25" stroke-miterlimit="10"/>
<path d="M665.051 395.469L1700.69 -202.461" stroke="#535461" stroke-width="0.25" stroke-miterlimit="10"/>
<path d="M653.691 375.799L1689.33 -222.131" stroke="#535461" stroke-width="0.25" stroke-miterlimit="10"/>
<path d="M642.334 356.123L1677.98 -241.81" stroke="#535461" stroke-width="0.25" stroke-miterlimit="10"/>
<path d="M630.975 336.445L1666.61 -261.483" stroke="#535461" stroke-width="0.25" stroke-miterlimit="10"/>
<path d="M619.615 316.776L1655.26 -281.156" stroke="#535461" stroke-width="0.25" stroke-miterlimit="10"/>
<path d="M608.254 297.099L1643.89 -300.833" stroke="#535461" stroke-width="0.25" stroke-miterlimit="10"/>
<path d="M596.895 277.422L1632.54 -320.505" stroke="#535461" stroke-width="0.25" stroke-miterlimit="10"/>
<path d="M585.537 257.752L1621.18 -340.179" stroke="#535461" stroke-width="0.25" stroke-miterlimit="10"/>
<path d="M574.178 238.078L1609.82 -359.856" stroke="#535461" stroke-width="0.25" stroke-miterlimit="10"/>
<path d="M562.822 218.401L1598.46 -379.527" stroke="#535461" stroke-width="0.25" stroke-miterlimit="10"/>
<path d="M551.457 198.723L1587.1 -399.202" stroke="#535461" stroke-width="0.25" stroke-miterlimit="10"/>
<path d="M540.102 179.05L1575.74 -418.879" stroke="#535461" stroke-width="0.25" stroke-miterlimit="10"/>
<path d="M528.742 159.374L1564.38 -438.551" stroke="#535461" stroke-width="0.25" stroke-miterlimit="10"/>
<path d="M517.381 139.703L1553.02 -458.226" stroke="#535461" stroke-width="0.25" stroke-miterlimit="10"/>
<path d="M506.025 120.029L1541.67 -477.901" stroke="#535461" stroke-width="0.25" stroke-miterlimit="10"/>
<path d="M494.664 100.351L1530.31 -497.575" stroke="#535461" stroke-width="0.25" stroke-miterlimit="10"/>
<path d="M483.305 80.6795L1518.95 -517.249" stroke="#535461" stroke-width="0.25" stroke-miterlimit="10"/>
<path d="M471.949 61.0056L1507.59 -536.923" stroke="#535461" stroke-width="0.25" stroke-miterlimit="10"/>
<path d="M460.588 41.3279L1496.23 -556.599" stroke="#535461" stroke-width="0.25" stroke-miterlimit="10"/>
<path d="M449.232 21.655L1484.87 -576.273" stroke="#535461" stroke-width="0.25" stroke-miterlimit="10"/>
<path d="M437.871 1.98304L1473.51 -595.947" stroke="#535461" stroke-width="0.25" stroke-miterlimit="10"/>
<path d="M1238.97 1377.45L2274.61 779.517" stroke="#535461" stroke-width="0.25" stroke-miterlimit="10"/>
<path d="M1227.62 1357.78L2263.26 759.844" stroke="#535461" stroke-width="0.25" stroke-miterlimit="10"/>
<path d="M1216.25 1338.1L2251.89 740.167" stroke="#535461" stroke-width="0.25" stroke-miterlimit="10"/>
<path d="M1204.89 1318.42L2240.54 720.495" stroke="#535461" stroke-width="0.25" stroke-miterlimit="10"/>
<path d="M1193.54 1298.75L2229.18 700.821" stroke="#535461" stroke-width="0.25" stroke-miterlimit="10"/>
<path d="M1182.18 1279.08L2217.82 681.144" stroke="#535461" stroke-width="0.25" stroke-miterlimit="10"/>
<path d="M1170.82 1259.4L2206.46 661.473" stroke="#535461" stroke-width="0.25" stroke-miterlimit="10"/>
<path d="M1159.46 1239.72L2195.1 641.798" stroke="#535461" stroke-width="0.25" stroke-miterlimit="10"/>
<path d="M1148.1 1220.05L2183.74 622.121" stroke="#535461" stroke-width="0.25" stroke-miterlimit="10"/>
<path d="M1136.74 1200.37L2172.38 602.449" stroke="#535461" stroke-width="0.25" stroke-miterlimit="10"/>
<path d="M1125.38 1180.7L2161.02 582.774" stroke="#535461" stroke-width="0.25" stroke-miterlimit="10"/>
<path d="M1114.03 1161.03L2149.67 563.099" stroke="#535461" stroke-width="0.25" stroke-miterlimit="10"/>
<path d="M1102.66 1141.35L2138.31 543.425" stroke="#535461" stroke-width="0.25" stroke-miterlimit="10"/>
<path d="M1091.3 1121.68L2126.95 523.751" stroke="#535461" stroke-width="0.25" stroke-miterlimit="10"/>
<path d="M1079.95 1102.01L2115.59 504.077" stroke="#535461" stroke-width="0.25" stroke-miterlimit="10"/>
<path d="M1068.59 1082.33L2104.23 484.401" stroke="#535461" stroke-width="0.25" stroke-miterlimit="10"/>
<path d="M1057.23 1062.66L2092.87 464.727" stroke="#535461" stroke-width="0.25" stroke-miterlimit="10"/>
<path d="M1045.87 1042.98L2081.51 445.053" stroke="#535461" stroke-width="0.25" stroke-miterlimit="10"/>
<path d="M1034.51 1023.31L2070.15 425.378" stroke="#535461" stroke-width="0.25" stroke-miterlimit="10"/>
<path d="M1023.15 1003.63L2058.79 405.703" stroke="#535461" stroke-width="0.25" stroke-miterlimit="10"/>
<path d="M1011.79 983.959L2047.43 386.03" stroke="#535461" stroke-width="0.25" stroke-miterlimit="10"/>
<path d="M1000.44 964.283L2036.08 366.354" stroke="#535461" stroke-width="0.25" stroke-miterlimit="10"/>
<path d="M989.076 944.609L2024.72 346.681" stroke="#535461" stroke-width="0.25" stroke-miterlimit="10"/>
<path d="M977.715 924.933L2013.36 327.007" stroke="#535461" stroke-width="0.25" stroke-miterlimit="10"/>
<path d="M966.355 905.259L2002 307.33" stroke="#535461" stroke-width="0.25" stroke-miterlimit="10"/>
<path d="M954.998 885.588L1990.64 287.657" stroke="#535461" stroke-width="0.25" stroke-miterlimit="10"/>
<path d="M943.639 865.912L1979.28 267.983" stroke="#535461" stroke-width="0.25" stroke-miterlimit="10"/>
<path d="M-371.895 203.21L640.665 839.451" stroke="#535461" stroke-width="0.25" stroke-miterlimit="10"/>
<path d="M-359.805 183.972L652.752 820.212" stroke="#535461" stroke-width="0.25" stroke-miterlimit="10"/>
<path d="M-347.721 164.74L664.839 800.976" stroke="#535461" stroke-width="0.25" stroke-miterlimit="10"/>
<path d="M-335.633 145.505L676.924 781.741" stroke="#535461" stroke-width="0.25" stroke-miterlimit="10"/>
<path d="M-323.544 126.265L689.01 762.502" stroke="#535461" stroke-width="0.25" stroke-miterlimit="10"/>
<path d="M-311.459 107.031L701.099 743.269" stroke="#535461" stroke-width="0.25" stroke-miterlimit="10"/>
<path d="M-299.372 87.7915L713.185 724.031" stroke="#535461" stroke-width="0.25" stroke-miterlimit="10"/>
<path d="M-287.284 68.5581L725.273 704.798" stroke="#535461" stroke-width="0.25" stroke-miterlimit="10"/>
<path d="M-275.198 49.3236L737.358 685.557" stroke="#535461" stroke-width="0.25" stroke-miterlimit="10"/>
<path d="M-263.11 30.0864L749.446 666.324" stroke="#535461" stroke-width="0.25" stroke-miterlimit="10"/>
<path d="M-251.027 10.8508L761.532 647.087" stroke="#535461" stroke-width="0.25" stroke-miterlimit="10"/>
<path d="M-238.938 -8.38524L773.619 627.854" stroke="#535461" stroke-width="0.25" stroke-miterlimit="10"/>
<path d="M-226.85 -27.6207L785.708 608.616" stroke="#535461" stroke-width="0.25" stroke-miterlimit="10"/>
<path d="M-214.768 -46.8552L797.792 589.381" stroke="#535461" stroke-width="0.25" stroke-miterlimit="10"/>
<path d="M-202.68 -66.0935L809.881 570.146" stroke="#535461" stroke-width="0.25" stroke-miterlimit="10"/>
<path d="M-190.593 -85.3306L821.965 550.911" stroke="#535461" stroke-width="0.25" stroke-miterlimit="10"/>
<path d="M-178.504 -104.563L834.053 531.674" stroke="#535461" stroke-width="0.25" stroke-miterlimit="10"/>
<path d="M-166.417 -123.801L846.139 512.437" stroke="#535461" stroke-width="0.25" stroke-miterlimit="10"/>
<path d="M-154.332 -143.038L858.226 493.201" stroke="#535461" stroke-width="0.25" stroke-miterlimit="10"/>
<path d="M-142.245 -162.271L870.31 473.965" stroke="#535461" stroke-width="0.25" stroke-miterlimit="10"/>
<path d="M-130.155 -181.508L882.403 454.729" stroke="#535461" stroke-width="0.25" stroke-miterlimit="10"/>
<path d="M-118.069 -200.746L894.486 435.495" stroke="#535461" stroke-width="0.25" stroke-miterlimit="10"/>
<path d="M-105.985 -219.981L906.573 416.26" stroke="#535461" stroke-width="0.25" stroke-miterlimit="10"/>
<path d="M-93.8949 -239.215L918.663 397.022" stroke="#535461" stroke-width="0.25" stroke-miterlimit="10"/>
<path d="M-81.8129 -258.45L930.744 377.786" stroke="#535461" stroke-width="0.25" stroke-miterlimit="10"/>
<path d="M-69.7227 -277.684L942.838 358.554" stroke="#535461" stroke-width="0.25" stroke-miterlimit="10"/>
<path d="M-57.6336 -296.922L954.923 339.316" stroke="#535461" stroke-width="0.25" stroke-miterlimit="10"/>
<path d="M-45.5508 -316.157L967.009 320.081" stroke="#535461" stroke-width="0.25" stroke-miterlimit="10"/>
<path d="M-33.463 -335.395L979.096 300.839" stroke="#535461" stroke-width="0.25" stroke-miterlimit="10"/>
<path d="M-21.3741 -354.633L991.181 281.607" stroke="#535461" stroke-width="0.25" stroke-miterlimit="10"/>
<path d="M-9.29142 -373.864L1003.27 262.373" stroke="#535461" stroke-width="0.25" stroke-miterlimit="10"/>
<path d="M2.79518 -393.101L1015.36 243.132" stroke="#535461" stroke-width="0.25" stroke-miterlimit="10"/>
<path d="M14.886 -412.335L1027.44 223.904" stroke="#535461" stroke-width="0.25" stroke-miterlimit="10"/>
<path d="M26.9733 -431.577L1039.53 204.664" stroke="#535461" stroke-width="0.25" stroke-miterlimit="10"/>
<path d="M39.0598 -450.81L1051.62 185.426" stroke="#535461" stroke-width="0.25" stroke-miterlimit="10"/>
<path d="M51.1491 -470.048L1063.7 166.193" stroke="#535461" stroke-width="0.25" stroke-miterlimit="10"/>
<path d="M63.2317 -489.283L1075.79 146.957" stroke="#535461" stroke-width="0.25" stroke-miterlimit="10"/>
<path d="M75.3199 -508.516L1087.88 127.723" stroke="#535461" stroke-width="0.25" stroke-miterlimit="10"/>
<path d="M87.4072 -527.754L1099.96 108.488" stroke="#535461" stroke-width="0.25" stroke-miterlimit="10"/>
<path d="M99.4934 -546.991L1112.05 89.2489" stroke="#535461" stroke-width="0.25" stroke-miterlimit="10"/>
<path d="M111.579 -566.223L1124.14 70.0149" stroke="#535461" stroke-width="0.25" stroke-miterlimit="10"/>
<path d="M123.669 -585.461L1136.22 50.7775" stroke="#535461" stroke-width="0.25" stroke-miterlimit="10"/>
<path d="M135.755 -604.694L1148.31 31.5458" stroke="#535461" stroke-width="0.25" stroke-miterlimit="10"/>
<path d="M147.841 -623.93L1160.4 12.3067" stroke="#535461" stroke-width="0.25" stroke-miterlimit="10"/>
<path d="M159.929 -643.167L1172.49 -6.92788" stroke="#535461" stroke-width="0.25" stroke-miterlimit="10"/>
<path d="M172.013 -662.404L1184.57 -26.1685" stroke="#535461" stroke-width="0.25" stroke-miterlimit="10"/>
<path d="M184.101 -681.641L1196.66 -45.4015" stroke="#535461" stroke-width="0.25" stroke-miterlimit="10"/>
<path d="M196.191 -700.875L1208.75 -64.6359" stroke="#535461" stroke-width="0.25" stroke-miterlimit="10"/>
<path d="M208.275 -720.112L1220.83 -83.8739" stroke="#535461" stroke-width="0.25" stroke-miterlimit="10"/>
<path d="M220.362 -739.349L1232.92 -103.109" stroke="#535461" stroke-width="0.25" stroke-miterlimit="10"/>
<path d="M232.448 -758.585L1245.01 -122.346" stroke="#535461" stroke-width="0.25" stroke-miterlimit="10"/>
<path d="M244.535 -777.818L1257.09 -141.581" stroke="#535461" stroke-width="0.25" stroke-miterlimit="10"/>
<path d="M256.622 -797.055L1269.18 -160.814" stroke="#535461" stroke-width="0.25" stroke-miterlimit="10"/>
<path d="M-693.905 727.042L318.651 1363.28" stroke="#535461" stroke-width="0.25" stroke-miterlimit="10"/>
<path d="M-681.822 707.808L330.738 1344.05" stroke="#535461" stroke-width="0.25" stroke-miterlimit="10"/>
<path d="M-669.734 688.57L342.824 1324.8" stroke="#535461" stroke-width="0.25" stroke-miterlimit="10"/>
<path d="M-657.646 669.332L354.91 1305.57" stroke="#535461" stroke-width="0.25" stroke-miterlimit="10"/>
<path d="M-645.563 650.101L366.995 1286.34" stroke="#535461" stroke-width="0.25" stroke-miterlimit="10"/>
<path d="M-633.476 630.863L379.084 1267.1" stroke="#535461" stroke-width="0.25" stroke-miterlimit="10"/>
<path d="M-621.386 611.629L391.172 1247.87" stroke="#535461" stroke-width="0.25" stroke-miterlimit="10"/>
<path d="M-609.298 592.387L403.256 1228.63" stroke="#535461" stroke-width="0.25" stroke-miterlimit="10"/>
<path d="M-597.212 573.155L415.344 1209.39" stroke="#535461" stroke-width="0.25" stroke-miterlimit="10"/>
<path d="M-585.122 553.917L427.431 1190.16" stroke="#535461" stroke-width="0.25" stroke-miterlimit="10"/>
<path d="M-573.04 534.682L439.517 1170.92" stroke="#535461" stroke-width="0.25" stroke-miterlimit="10"/>
<path d="M-560.952 515.449L451.607 1151.69" stroke="#535461" stroke-width="0.25" stroke-miterlimit="10"/>
<path d="M-548.864 496.211L463.692 1132.45" stroke="#535461" stroke-width="0.25" stroke-miterlimit="10"/>
<path d="M-536.778 476.974L475.779 1113.21" stroke="#535461" stroke-width="0.25" stroke-miterlimit="10"/>
<path d="M-524.692 457.742L487.864 1093.98" stroke="#535461" stroke-width="0.25" stroke-miterlimit="10"/>
<path d="M-512.603 438.504L499.952 1074.74" stroke="#535461" stroke-width="0.25" stroke-miterlimit="10"/>
<path d="M-500.516 419.271L512.041 1055.51" stroke="#535461" stroke-width="0.25" stroke-miterlimit="10"/>
<path d="M-488.43 400.035L524.128 1036.27" stroke="#535461" stroke-width="0.25" stroke-miterlimit="10"/>
<path d="M-476.343 380.797L536.214 1017.04" stroke="#535461" stroke-width="0.25" stroke-miterlimit="10"/>
<path d="M-464.258 361.561L548.299 997.796" stroke="#535461" stroke-width="0.25" stroke-miterlimit="10"/>
<path d="M-452.171 342.324L560.386 978.563" stroke="#535461" stroke-width="0.25" stroke-miterlimit="10"/>
<path d="M-440.081 323.089L572.476 959.329" stroke="#535461" stroke-width="0.25" stroke-miterlimit="10"/>
<path d="M-427.997 303.853L584.559 940.091" stroke="#535461" stroke-width="0.25" stroke-miterlimit="10"/>
<path d="M-415.909 284.616L596.646 920.856" stroke="#535461" stroke-width="0.25" stroke-miterlimit="10"/>
<path d="M-403.823 265.379L608.734 901.619" stroke="#535461" stroke-width="0.25" stroke-miterlimit="10"/>
<path d="M-391.737 246.147L620.821 882.384" stroke="#535461" stroke-width="0.25" stroke-miterlimit="10"/>
<path d="M-379.649 226.91L632.909 863.151" stroke="#535461" stroke-width="0.25" stroke-miterlimit="10"/>
<path d="M634.086 835.413L1646.65 1471.65" stroke="#535461" stroke-width="0.25" stroke-miterlimit="10"/>
<path d="M646.175 816.175L1658.73 1452.41" stroke="#535461" stroke-width="0.25" stroke-miterlimit="10"/>
<path d="M658.26 796.943L1670.82 1433.18" stroke="#535461" stroke-width="0.25" stroke-miterlimit="10"/>
<path d="M670.347 777.708L1682.9 1413.94" stroke="#535461" stroke-width="0.25" stroke-miterlimit="10"/>
<path d="M682.436 758.468L1694.99 1394.71" stroke="#535461" stroke-width="0.25" stroke-miterlimit="10"/>
<path d="M694.521 739.234L1707.08 1375.47" stroke="#535461" stroke-width="0.25" stroke-miterlimit="10"/>
<path d="M706.609 719.995L1719.17 1356.23" stroke="#535461" stroke-width="0.25" stroke-miterlimit="10"/>
<path d="M718.697 700.761L1731.25 1337" stroke="#535461" stroke-width="0.25" stroke-miterlimit="10"/>
<path d="M730.783 681.527L1743.34 1317.76" stroke="#535461" stroke-width="0.25" stroke-miterlimit="10"/>
<path d="M742.87 662.29L1755.43 1298.53" stroke="#535461" stroke-width="0.25" stroke-miterlimit="10"/>
<path d="M754.953 643.054L1767.51 1279.29" stroke="#535461" stroke-width="0.25" stroke-miterlimit="10"/>
<path d="M767.042 623.818L1779.6 1260.06" stroke="#535461" stroke-width="0.25" stroke-miterlimit="10"/>
<path d="M779.13 604.582L1791.69 1240.82" stroke="#535461" stroke-width="0.25" stroke-miterlimit="10"/>
<path d="M791.213 585.348L1803.77 1221.58" stroke="#535461" stroke-width="0.25" stroke-miterlimit="10"/>
<path d="M803.301 566.11L1815.86 1202.35" stroke="#535461" stroke-width="0.25" stroke-miterlimit="10"/>
<path d="M815.388 546.873L1827.95 1183.11" stroke="#535461" stroke-width="0.25" stroke-miterlimit="10"/>
<path d="M827.476 527.64L1840.03 1163.88" stroke="#535461" stroke-width="0.25" stroke-miterlimit="10"/>
<path d="M839.564 508.402L1852.12 1144.64" stroke="#535461" stroke-width="0.25" stroke-miterlimit="10"/>
<path d="M851.648 489.165L1864.21 1125.4" stroke="#535461" stroke-width="0.25" stroke-miterlimit="10"/>
<path d="M863.736 469.932L1876.29 1106.17" stroke="#535461" stroke-width="0.25" stroke-miterlimit="10"/>
<path d="M875.826 450.695L1888.38 1086.93" stroke="#535461" stroke-width="0.25" stroke-miterlimit="10"/>
<path d="M887.911 431.458L1900.47 1067.7" stroke="#535461" stroke-width="0.25" stroke-miterlimit="10"/>
<path d="M899.995 412.222L1912.55 1048.46" stroke="#535461" stroke-width="0.25" stroke-miterlimit="10"/>
<path d="M912.086 392.988L1924.64 1029.22" stroke="#535461" stroke-width="0.25" stroke-miterlimit="10"/>
<path d="M924.168 373.753L1936.72 1009.99" stroke="#535461" stroke-width="0.25" stroke-miterlimit="10"/>
<path d="M936.258 354.519L1948.82 990.757" stroke="#535461" stroke-width="0.25" stroke-miterlimit="10"/>
<path d="M948.347 335.281L1960.9 971.519" stroke="#535461" stroke-width="0.25" stroke-miterlimit="10"/>
<path d="M960.43 316.046L1972.99 952.284" stroke="#535461" stroke-width="0.25" stroke-miterlimit="10"/>
<path d="M972.518 296.808L1985.08 933.042" stroke="#535461" stroke-width="0.25" stroke-miterlimit="10"/>
<path d="M984.606 277.57L1997.16 913.81" stroke="#535461" stroke-width="0.25" stroke-miterlimit="10"/>
<path d="M996.689 258.339L2009.25 894.576" stroke="#535461" stroke-width="0.25" stroke-miterlimit="10"/>
<path d="M1008.78 239.102L2021.34 875.335" stroke="#535461" stroke-width="0.25" stroke-miterlimit="10"/>
<path d="M1020.87 219.868L2033.42 856.107" stroke="#535461" stroke-width="0.25" stroke-miterlimit="10"/>
<path d="M1032.95 200.626L2045.51 836.867" stroke="#535461" stroke-width="0.25" stroke-miterlimit="10"/>
<path d="M1045.04 181.393L2057.6 817.629" stroke="#535461" stroke-width="0.25" stroke-miterlimit="10"/>
<path d="M1057.13 162.155L2069.68 798.396" stroke="#535461" stroke-width="0.25" stroke-miterlimit="10"/>
<path d="M1069.21 142.92L2081.77 779.16" stroke="#535461" stroke-width="0.25" stroke-miterlimit="10"/>
<path d="M1081.3 123.687L2093.86 759.926" stroke="#535461" stroke-width="0.25" stroke-miterlimit="10"/>
<path d="M1093.39 104.449L2105.94 740.691" stroke="#535461" stroke-width="0.25" stroke-miterlimit="10"/>
<path d="M1105.47 85.2124L2118.03 721.452" stroke="#535461" stroke-width="0.25" stroke-miterlimit="10"/>
<path d="M1117.56 65.98L2130.12 702.218" stroke="#535461" stroke-width="0.25" stroke-miterlimit="10"/>
<path d="M1129.65 46.7418L2142.2 682.981" stroke="#535461" stroke-width="0.25" stroke-miterlimit="10"/>
<path d="M1141.74 27.5093L2154.29 663.749" stroke="#535461" stroke-width="0.25" stroke-miterlimit="10"/>
<path d="M1153.82 8.27283L2166.38 644.51" stroke="#535461" stroke-width="0.25" stroke-miterlimit="10"/>
<path d="M1165.91 -10.9643L2178.47 625.275" stroke="#535461" stroke-width="0.25" stroke-miterlimit="10"/>
<path d="M1177.99 -30.2008L2190.55 606.035" stroke="#535461" stroke-width="0.25" stroke-miterlimit="10"/>
<path d="M1190.08 -49.438L2202.64 586.802" stroke="#535461" stroke-width="0.25" stroke-miterlimit="10"/>
<path d="M1202.17 -68.6724L2214.73 567.567" stroke="#535461" stroke-width="0.25" stroke-miterlimit="10"/>
<path d="M1214.26 -87.9087L2226.81 548.329" stroke="#535461" stroke-width="0.25" stroke-miterlimit="10"/>
<path d="M1226.34 -107.146L2238.9 529.095" stroke="#535461" stroke-width="0.25" stroke-miterlimit="10"/>
<path d="M1238.43 -126.382L2250.99 509.857" stroke="#535461" stroke-width="0.25" stroke-miterlimit="10"/>
<path d="M1250.52 -145.615L2263.07 490.622" stroke="#535461" stroke-width="0.25" stroke-miterlimit="10"/>
<path d="M1262.6 -164.852L2275.16 471.389" stroke="#535461" stroke-width="0.25" stroke-miterlimit="10"/>
<path d="M348.335 1301.53L1360.89 1937.78" stroke="#535461" stroke-width="0.25" stroke-miterlimit="10"/>
<path d="M360.418 1282.3L1372.98 1918.54" stroke="#535461" stroke-width="0.25" stroke-miterlimit="10"/>
<path d="M372.504 1263.07L1385.06 1899.3" stroke="#535461" stroke-width="0.25" stroke-miterlimit="10"/>
<path d="M384.595 1243.83L1397.15 1880.07" stroke="#535461" stroke-width="0.25" stroke-miterlimit="10"/>
<path d="M396.682 1224.59L1409.24 1860.83" stroke="#535461" stroke-width="0.25" stroke-miterlimit="10"/>
<path d="M408.769 1205.36L1421.32 1841.59" stroke="#535461" stroke-width="0.25" stroke-miterlimit="10"/>
<path d="M420.858 1186.12L1433.41 1822.36" stroke="#535461" stroke-width="0.25" stroke-miterlimit="10"/>
<path d="M432.941 1166.89L1445.5 1803.12" stroke="#535461" stroke-width="0.25" stroke-miterlimit="10"/>
<path d="M445.029 1147.65L1457.59 1783.89" stroke="#535461" stroke-width="0.25" stroke-miterlimit="10"/>
<path d="M457.116 1128.41L1469.67 1764.66" stroke="#535461" stroke-width="0.25" stroke-miterlimit="10"/>
<path d="M469.202 1109.18L1481.76 1745.42" stroke="#535461" stroke-width="0.25" stroke-miterlimit="10"/>
<path d="M481.288 1089.94L1493.84 1726.18" stroke="#535461" stroke-width="0.25" stroke-miterlimit="10"/>
<path d="M493.378 1070.71L1505.93 1706.95" stroke="#535461" stroke-width="0.25" stroke-miterlimit="10"/>
<path d="M505.464 1051.47L1518.02 1687.71" stroke="#535461" stroke-width="0.25" stroke-miterlimit="10"/>
<path d="M517.55 1032.24L1530.11 1668.47" stroke="#535461" stroke-width="0.25" stroke-miterlimit="10"/>
<path d="M529.638 1013L1542.19 1649.24" stroke="#535461" stroke-width="0.25" stroke-miterlimit="10"/>
<path d="M541.722 993.764L1554.28 1630" stroke="#535461" stroke-width="0.25" stroke-miterlimit="10"/>
<path d="M553.81 974.527L1566.37 1610.77" stroke="#535461" stroke-width="0.25" stroke-miterlimit="10"/>
<path d="M565.9 955.292L1578.46 1591.53" stroke="#535461" stroke-width="0.25" stroke-miterlimit="10"/>
<path d="M577.984 936.056L1590.54 1572.29" stroke="#535461" stroke-width="0.25" stroke-miterlimit="10"/>
<path d="M590.071 916.819L1602.63 1553.06" stroke="#535461" stroke-width="0.25" stroke-miterlimit="10"/>
<path d="M602.157 897.583L1614.71 1533.82" stroke="#535461" stroke-width="0.25" stroke-miterlimit="10"/>
<path d="M614.244 878.35L1626.8 1514.59" stroke="#535461" stroke-width="0.25" stroke-miterlimit="10"/>
<path d="M626.331 859.113L1638.89 1495.35" stroke="#535461" stroke-width="0.25" stroke-miterlimit="10"/>
</g>
</g>
<defs>
<clipPath id="clip0">
<rect width="1440" height="1024" fill="white"/>
</clipPath>
</defs>
</svg>
